HIERARCHY
ROOT Hips
{
 OFFSET 0.000000 0.000000 0.000000
 CHANNELS 6 Xposition Yposition Zposition Yrotation Xrotation Zrotation
 JOINT Chest
 {
  OFFSET 0.000000 9.588913 -0.003946
  CHANNELS 3 Yrotation Xrotation Zrotation
  JOINT Chest2
  {
   OFFSET 0.000000 9.541882 0.008053
   CHANNELS 3 Yrotation Xrotation Zrotation
   JOINT Chest3
   {
    OFFSET 0.000000 9.501360 0.000000
    CHANNELS 3 Yrotation Xrotation Zrotation
    JOINT Chest4
    {
     OFFSET 0.000000 9.491660 0.000000
     CHANNELS 3 Yrotation Xrotation Zrotation
     JOINT Neck
     {
      OFFSET 0.000000 14.331917 0.000000
      CHANNELS 3 Yrotation Xrotation Zrotation
      JOINT Head
      {
       OFFSET 0.000000 8.884799 0.017034
       CHANNELS 3 Yrotation Xrotation Zrotation
       End Site
       {
        OFFSET 0.000000 16.896195 0.008993
       }
      }
     }
     JOINT RightCollar
     {
      OFFSET -2.923010 9.499495 0.000000
      CHANNELS 3 Yrotation Xrotation Zrotation
      JOINT RightShoulder
      {
       OFFSET -13.795216 0.000000 0.000000
       CHANNELS 3 Yrotation Xrotation Zrotation
       JOINT RightElbow
       {
        OFFSET -30.272209 0.000000 0.000000
        CHANNELS 3 Yrotation Xrotation Zrotation
        JOINT RightWrist
        {
         OFFSET -24.478199 0.000000 0.000000
         CHANNELS 3 Yrotation Xrotation Zrotation
         End Site
         {
          OFFSET -18.090752 0.000000 0.000000
         }
        }
       }
      }
     }
     JOINT LeftCollar
     {
      OFFSET 2.923010 9.499495 0.000000
      CHANNELS 3 Yrotation Xrotation Zrotation
      JOINT LeftShoulder
      {
       OFFSET 13.795216 0.000000 0.000000
       CHANNELS 3 Yrotation Xrotation Zrotation
       JOINT LeftElbow
       {
        OFFSET 30.272209 0.000000 0.000000
        CHANNELS 3 Yrotation Xrotation Zrotation
        JOINT LeftWrist
        {
         OFFSET 24.478199 0.000000 0.000000
         CHANNELS 3 Yrotation Xrotation Zrotation
         End Site
         {
          OFFSET 18.090752 0.000000 0.000000
         }
        }
       }
      }
     }
    }
   }
  }
 }
 JOINT RightHip
 {
  OFFSET -7.826875 0.019532 0.001973
  CHANNELS 3 Yrotation Xrotation Zrotation
  JOINT RightKnee
  {
   OFFSET 0.000000 -40.546152 -0.001885
   CHANNELS 3 Yrotation Xrotation Zrotation
   JOINT RightAnkle
   {
    OFFSET 0.000000 -39.417092 -0.003189
    CHANNELS 3 Yrotation Xrotation Zrotation
    JOINT RightToe
    {
     OFFSET 0.000000 -7.579396 17.243563
     CHANNELS 3 Yrotation Xrotation Zrotation
     End Site
     {
      OFFSET 0.000000 -1.500329 6.694466
     }
    }
   }
  }
 }
 JOINT LeftHip
 {
  OFFSET 7.826875 0.019532 0.001973
  CHANNELS 3 Yrotation Xrotation Zrotation
  JOINT LeftKnee
  {
   OFFSET 0.000000 -40.546152 -0.001885
   CHANNELS 3 Yrotation Xrotation Zrotation
   JOINT LeftAnkle
   {
    OFFSET 0.000000 -39.417092 -0.003189
    CHANNELS 3 Yrotation Xrotation Zrotation
    JOINT LeftToe
    {
     OFFSET 0.000000 -7.579396 17.243563
     CHANNELS 3 Yrotation Xrotation Zrotation
     End Site
     {
      OFFSET 0.000000 -1.500329 6.694466
     }
    }
   }
  }
 }
}
MOTION
Frames: 15
Frame Time: 0.008333
-50.879150 86.646081 64.327555 -50.401885 -19.477393 2.117006 2.208228 7.316582 0.544154 1.236315 4.098956 0.219180 1.548841 5.122876 0.288019 1.236312 4.098954 0.219178 -4.544139 32.934069 -0.331226 -5.052922 11.940405 0.637301 -9.294896 3.966931 -1.240350 -7.426774 1.955911 86.359966 12.698713 -12.956638 4.585833 1.153401 -1.823717 1.605875 -0.676891 1.448041 -2.436562 4.563444 0.852574 -86.359490 -12.468950 -2.179871 -8.997542 -6.177136 -2.122913 5.033995 -10.095384 -9.182761 -7.048165 9.196511 60.567144 -1.073551 4.877568 -6.485039 8.653566 0.226421 -16.550913 -4.378739 3.018893 0.126848 -0.780794 9.884204 28.564485 6.369739 8.243632 -8.636101 -2.413309 0.412532 -0.492020 -0.046695
-51.273530 86.698204 64.543102 -50.052906 -19.385580 2.046661 2.123334 7.356489 0.544551 1.186169 4.146083 0.262330 1.486659 5.181679 0.341587 1.186166 4.146082 0.262328 -4.650907 33.062590 -0.432927 -5.154465 12.124670 0.545153 -9.350387 4.209403 -1.371015 -7.320392 1.952318 86.622994 12.768175 -13.163307 4.607791 0.918317 -1.649973 1.780852 -0.679042 1.530834 -2.469367 4.544666 0.626757 -86.488906 -12.322704 -2.303330 -8.882850 -6.091225 -2.136598 4.953109 -9.820606 -9.753579 -6.934970 8.072501 58.931535 -1.761210 5.032841 -6.819947 8.766444 0.100321 -13.762419 -4.321598 3.295857 0.333480 -0.645049 9.678909 28.502497 6.301528 7.951068 -8.794487 -2.305640 0.304012 -0.457115 -0.100853
-51.655803 86.753370 64.755937 -49.706687 -19.243480 1.981932 2.039123 7.391565 0.547576 1.140802 4.189428 0.309462 1.430505 5.235750 0.400167 1.140800 4.189427 0.309460 -4.769239 33.183487 -0.545956 -5.266672 12.299231 0.442619 -9.378542 4.450681 -1.540594 -7.189082 1.970230 86.922017 12.892247 -13.294027 4.587074 0.599473 -1.439467 1.927983 -0.659390 1.592297 -2.478607 4.547062 0.459351 -86.677821 -12.217342 -2.460028 -8.788666 -6.009780 -2.171451 4.931549 -9.365171 -10.247094 -6.899278 6.953202 57.019838 -2.267988 5.166820 -7.034204 8.955821 -0.011202 -11.152901 -4.327262 3.601110 0.503223 -0.500220 9.429651 28.402024 6.186912 7.682309 -8.924161 -2.164967 0.182195 -0.423841 -0.161896
-52.023403 86.808991 64.966989 -49.345269 -19.035519 1.909383 1.957637 7.412144 0.566695 1.095837 4.224317 0.359029 1.374879 5.279254 0.461762 1.095835 4.224317 0.359028 -4.897232 33.291267 -0.667201 -5.387961 12.456313 0.332828 -9.382934 4.695848 -1.737785 -7.066611 2.003042 87.237460 13.054797 -13.347731 4.552866 0.246574 -1.229667 2.031112 -0.627927 1.640796 -2.481743 4.574939 0.351774 -86.900141 -12.170411 -2.628068 -8.729721 -5.935929 -2.225395 4.973768 -8.788290 -10.631044 -6.932641 5.969902 54.773221 -2.508555 5.275094 -7.140343 9.175874 -0.121722 -8.595702 -4.378831 3.863806 0.619048 -0.357480 9.140406 28.256851 6.029260 7.438190 -9.039108 -2.018373 0.095880 -0.371587 -0.206671
-52.373406 86.863672 65.180696 -48.942768 -18.757960 1.842342 1.867977 7.410065 0.591089 1.047725 4.251079 0.407965 1.315306 5.312615 0.522498 1.047723 4.251077 0.407963 -5.033141 33.382636 -0.790569 -5.517638 12.591251 0.222318 -9.364896 4.935827 -1.942557 -6.983681 2.048361 87.543326 13.236695 -13.327213 4.529060 -0.094900 -1.053143 2.087577 -0.593313 1.680605 -2.492541 4.614293 0.295894 -87.126564 -12.190146 -2.798006 -8.720731 -5.879378 -2.294820 5.076040 -8.177186 -10.895100 -7.052162 5.263978 52.203592 -2.419838 5.328275 -7.193524 9.411362 -0.241909 -5.966470 -4.477544 4.031350 0.675953 -0.250003 8.858606 28.067620 5.858739 7.219343 -9.135201 -1.873778 0.011236 -0.307898 -0.242649
-52.706577 86.917319 65.402794 -48.492347 -18.431174 1.804640 1.765069 7.388595 0.603489 0.997379 4.273306 0.453171 1.252892 5.340334 0.578525 0.997377 4.273302 0.453170 -5.175055 33.459416 -0.908714 -5.655214 12.706589 0.118977 -9.333744 5.162637 -2.129218 -6.953175 2.097693 87.811520 13.410810 -13.244602 4.534400 -0.381418 -0.925756 2.104051 -0.572606 1.725116 -2.516525 4.652794 0.269924 -87.329376 -12.275521 -2.965052 -8.775788 -5.846275 -2.375481 5.227792 -7.652619 -11.019718 -7.255369 4.937856 49.322632 -2.043044 5.313106 -7.193918 9.685656 -0.343794 -3.218002 -4.286560 4.088821 0.692972 -0.197661 8.653375 27.851403 5.700047 6.967483 -9.252067 -1.741357 -0.068898 -0.214064 -0.263814
-53.034789 86.970834 65.633882 -48.028773 -18.107842 1.776447 1.678423 7.381110 0.635964 0.946936 4.293894 0.491967 1.190283 5.366034 0.626521 0.946932 4.293889 0.491965 -5.316334 33.528182 -1.016100 -5.794500 12.811194 0.027570 -9.296833 5.370464 -2.273719 -6.964741 2.147080 88.019284 13.550839 -13.118441 4.585580 -0.576203 -0.853257 2.089878 -0.573572 1.786531 -2.556111 4.681212 0.251860 -87.481717 -12.413198 -3.123318 -8.901477 -5.848128 -2.467959 5.406546 -7.296120 -10.955913 -7.461753 4.933040 46.152851 -1.562970 5.280876 -7.129601 10.044455 -0.386842 -0.590398 -3.542832 4.068794 0.710920 -0.155967 8.545400 27.639714 5.550427 6.673412 -9.346638 -1.619754 -0.142073 -0.154309 -0.272578
-53.353788 87.020905 65.873965 -47.528284 -17.767916 1.787219 1.577973 7.355998 0.648937 0.897172 4.313006 0.522559 1.128429 5.389918 0.664254 0.897169 4.312999 0.522557 -5.454571 33.593514 -1.111499 -5.933128 12.911321 -0.051064 -9.260196 5.558731 -2.365446 -6.993537 2.199806 88.159824 13.648202 -12.975539 4.683580 -0.666620 -0.828754 2.062433 -0.594838 1.871408 -2.612154 4.683206 0.225031 -87.566422 -12.585791 -3.269797 -9.091869 -5.897284 -2.570451 5.578626 -7.145506 -10.739512 -7.664573 5.090323 42.733461 -1.178966 5.304392 -6.983555 10.537280 -0.388558 1.470749 -2.730726 3.953395 0.697701 -0.163454 8.507167 27.458310 5.403491 6.364209 -9.461537 -1.506947 -0.204126 -0.093867 -0.275091
-53.671884 87.065969 66.120046 -47.019128 -17.438130 1.821416 1.493883 7.338749 0.667605 0.849128 4.328270 0.545273 1.068629 5.409015 0.692139 0.849125 4.328262 0.545271 -5.596406 33.655256 -1.197873 -6.078015 13.007137 -0.118804 -9.236159 5.735406 -2.417065 -7.015341 2.253723 88.245454 13.706045 -12.846451 4.820576 -0.663082 -0.827288 2.037294 -0.643421 1.985824 -2.678965 4.654344 0.174678 -87.589053 -12.780190 -3.396720 -9.329596 -5.984643 -2.670726 5.716187 -7.121051 -10.352315 -7.819935 5.277645 39.116669 -0.983315 5.417857 -6.698177 11.163032 -0.381214 2.850781 -2.195835 3.771406 0.671785 -0.198379 8.510264 27.316033 5.258965 6.066482 -9.548769 -1.403703 -0.252226 -0.078520 -0.275696
-53.986243 87.101782 66.368343 -46.484143 -17.093203 1.889778 1.407497 7.310645 0.673333 0.802762 4.337327 0.561286 1.010837 5.420373 0.711642 0.802761 4.337317 0.561284 -5.746413 33.709577 -1.279291 -6.233372 13.093475 -0.179195 -9.228759 5.903904 -2.452241 -7.015270 2.305710 88.298458 13.727447 -12.746856 4.990356 -0.588430 -0.826637 2.019512 -0.717386 2.127710 -2.742250 4.598434 0.094670 -87.573623 -12.985588 -3.489060 -9.590714 -6.097793 -2.750671 5.798720 -7.146465 -9.859731 -7.955240 5.418942 35.411002 -0.959915 5.634710 -6.241830 11.856209 -0.366552 3.710675 -1.819988 3.514939 0.607060 -0.275684 8.535473 27.212926 5.111435 5.792485 -9.637397 -1.308498 -0.288870 -0.075852 -0.276275
-54.299707 87.125709 66.615717 -45.926830 -16.736037 1.986200 1.322465 7.276572 0.670332 0.757150 4.338792 0.572077 0.953914 5.422253 0.724604 0.757151 4.338780 0.572076 -5.904117 33.754805 -1.358713 -6.397960 13.167885 -0.235662 -9.229810 6.066350 -2.490567 -6.989376 2.358530 88.346179 13.718979 -12.672607 5.173004 -0.471602 -0.823033 2.012476 -0.794363 2.285675 -2.792315 4.508064 -0.007387 -87.541512 -13.193318 -3.533922 -9.848955 -6.225146 -2.790439 5.809154 -7.152899 -9.294168 -8.095629 5.468816 31.715696 -1.052837 6.009246 -5.591198 12.500510 -0.339755 4.169037 -1.490482 3.213334 0.506285 -0.380387 8.565841 27.151659 4.959456 5.531085 -9.742211 -1.223001 -0.318265 -0.073895 -0.275212
-54.611942 87.135169 66.859619 -45.348773 -16.357251 2.116052 1.231461 7.219586 0.648765 0.714839 4.332801 0.579521 0.901066 5.414820 0.733401 0.714842 4.332791 0.579522 -6.068793 33.796764 -1.436643 -6.571040 13.238563 -0.289021 -9.233254 6.227203 -2.544161 -6.937162 2.420016 88.412300 13.694004 -12.614607 5.341900 -0.346937 -0.817878 2.018726 -0.854178 2.445534 -2.829766 4.377177 -0.111800 -87.507706 -13.401327 -3.521212 -10.077769 -6.340564 -2.777663 5.741976 -7.118894 -8.693984 -8.260424 5.435644 28.113223 -1.210654 6.541421 -4.759069 12.990613 -0.302904 4.331522 -1.123183 2.902613 0.360927 -0.513505 8.587193 27.138738 4.811463 5.269793 -9.895686 -1.154608 -0.342670 -0.048198 -0.269897
-54.934842 87.131263 67.100520 -44.822838 -16.010751 2.262316 1.190278 7.183929 0.638395 0.681737 4.321483 0.585504 0.859708 5.400718 0.740468 0.681741 4.321476 0.585505 -6.240223 33.842544 -1.508870 -6.753555 13.315653 -0.334655 -9.240583 6.382319 -2.613234 -6.859510 2.506569 88.501853 13.670233 -12.568109 5.483827 -0.250226 -0.805420 2.034309 -0.895161 2.592334 -2.857697 4.214784 -0.192326 -87.481533 -13.616874 -3.442187 -10.258040 -6.417314 -2.716138 5.609745 -6.987143 -8.005152 -8.410325 5.339745 24.645526 -1.405417 7.160851 -3.745601 13.271079 -0.261894 4.261763 -0.688034 2.669817 0.228665 -0.633457 8.594149 27.174477 4.676803 4.997961 -10.067159 -1.112423 -0.358137 -0.033562 -0.257051
-55.271480 87.112903 67.333231 -44.345741 -15.686827 2.394573 1.185928 7.150965 0.656805 0.663405 4.306754 0.592180 0.836828 5.382328 0.748572 0.663410 4.306752 0.592182 -6.416986 33.895323 -1.569956 -6.945232 13.403717 -0.366763 -9.253057 6.521919 -2.691809 -6.768710 2.639835 88.606985 13.663617 -12.525560 5.599478 -0.207824 -0.779260 2.050771 -0.923778 2.715506 -2.877282 4.039568 -0.224583 -87.465108 -13.857932 -3.295931 -10.387430 -6.427685 -2.612569 5.435119 -6.752639 -7.321935 -8.507452 5.118162 21.510471 -1.596977 7.849402 -2.585695 13.086675 -0.231915 3.961990 -0.044224 2.511746 0.101221 -0.708270 8.588036 27.261916 4.561558 4.712367 -10.289531 -1.106126 -0.366332 -0.001230 -0.237581
-55.633171 87.080897 67.550708 -43.919519 -15.400142 2.436950 1.221835 7.128803 0.773564 0.662901 4.290220 0.600404 0.836264 5.361649 0.758819 0.662907 4.290223 0.600406 -6.595746 33.951873 -1.617072 -7.142773 13.498014 -0.382789 -9.268572 6.636997 -2.775721 -6.679048 2.833912 88.722328 13.679891 -12.476226 5.692505 -0.229474 -0.742791 2.062943 -0.941349 2.809544 -2.884058 3.866781 -0.192253 -87.457286 -14.135477 -3.096441 -10.476796 -6.350261 -2.467711 5.237990 -6.399896 -6.754684 -8.454105 4.720105 18.993897 -1.739980 8.553598 -1.334133 12.175064 -0.242637 3.428946 0.903039 2.424371 -0.012067 -0.657922 8.564565 27.414022 4.469910 4.427078 -10.586696 -1.143793 -0.380154 0.064511 -0.217330
